<svg width="100%" height="100%" viewBox="0 0 512 512" version="1.1" xmlns="http://www.w3.org/2000/svg" xmlns:xlink="http://www.w3.org/1999/xlink" xml:space="preserve" style="fill-rule:evenodd;clip-rule:evenodd;stroke-linecap:round;stroke-linejoin:round;stroke-miterlimit:1.5;">
  <!-- Placeholder traveller avatar (C8 NPC pass): straw hat, sun-tanned face, red neckerchief, bindle knob. -->
  <g transform="matrix(1.164025,0,0,1.164025,-57.510829,-54.018753)">
    <circle cx="269.333" cy="266.333" r="210.333" style="fill:url(#_Radial1);stroke:black;stroke-width:3.44px;"/>
  </g>
  <g transform="matrix(1.037243,0,0,1.037243,-23.363995,-20.252268)">
    <circle cx="269.333" cy="266.333" r="210.333" style="fill:rgb(122,110,86);"/>
    <clipPath id="_clip2"><circle cx="269.333" cy="266.333" r="210.333"/></clipPath>
    <g clip-path="url(#_clip2)">
      <g transform="matrix(3.6,0,0,3.6,269.333333,266.333333)"><g transform="matrix(1,0,0,1,-50,-50)">
        <circle cx="50" cy="54" r="31" fill="#c99a6b" stroke="#46423e" stroke-width="3.5"/>
        <path d="M 8 42 Q 20 36 50 36 Q 80 36 92 42 Q 92 48 86 48 Q 70 44 50 44 Q 30 44 14 48 Q 8 48 8 42 Z" fill="#d9b968" stroke="#8a742f" stroke-width="3" stroke-linejoin="round"/>
        <path d="M 28 40 Q 28 16 50 16 Q 72 16 72 40 Q 60 36 50 36 Q 40 36 28 40 Z" fill="#e3c778" stroke="#8a742f" stroke-width="3" stroke-linejoin="round"/>
        <path d="M 30 41 Q 50 37 70 41" fill="none" stroke="#a8494b" stroke-width="3" stroke-linecap="round"/>
        <circle cx="41" cy="55" r="3.5" fill="#2e2b28"/>
        <circle cx="59" cy="55" r="3.5" fill="#2e2b28"/>
        <path d="M 44 68 Q 50 72 56 68" fill="none" stroke="#8a5a34" stroke-width="2.5" stroke-linecap="round"/>
        <path d="M 30 82 Q 40 76 50 78 Q 60 76 70 82 L 66 92 L 34 92 Z" fill="#b04a4c" stroke="#6e2d2e" stroke-width="3" stroke-linejoin="round"/>
        <circle cx="18" cy="80" r="6.5" fill="#8a6a9e" stroke="#4e3a5c" stroke-width="3"/>
      </g></g>
    </g>
    <circle cx="269.333" cy="266.333" r="210.333" style="fill:none;stroke:black;stroke-width:2.89px;"/>
  </g>
  <defs>
    <radialGradient id="_Radial1" cx="0" cy="0" r="1" gradientUnits="userSpaceOnUse" gradientTransform="matrix(0,210.333333,-210.333333,0,269.333333,266.333333)"><stop offset="0" style="stop-color:white;stop-opacity:1"/><stop offset="0.48" style="stop-color:rgb(198,198,198);stop-opacity:1"/><stop offset="1" style="stop-color:rgb(44,44,44);stop-opacity:1"/></radialGradient>
  </defs>
</svg>
