<svg width="100%" height="100%" viewBox="0 0 512 512" version="1.1" xmlns="http://www.w3.org/2000/svg" xmlns:xlink="http://www.w3.org/1999/xlink" xml:space="preserve" style="fill-rule:evenodd;clip-rule:evenodd;stroke-linecap:round;stroke-linejoin:round;stroke-miterlimit:1.5;">
  <!-- Placeholder totem avatar (avatar icon pass): carved wooden face. -->
  <g transform="matrix(1.164025,0,0,1.164025,-57.510829,-54.018753)">
    <circle cx="269.333" cy="266.333" r="210.333" style="fill:url(#_Radial1);stroke:black;stroke-width:3.44px;"/>
  </g>
  <g transform="matrix(1.037243,0,0,1.037243,-23.363995,-20.252268)">
    <circle cx="269.333" cy="266.333" r="210.333" style="fill:rgb(118,84,46);"/>
    <clipPath id="_clip2"><circle cx="269.333" cy="266.333" r="210.333"/></clipPath>
    <g clip-path="url(#_clip2)">
      <g transform="matrix(3.6,0,0,3.6,269.333333,266.333333)"><g transform="matrix(1,0,0,1,-50,-50)">
        <circle cx="50" cy="50" r="38" fill="#8a5a2b" stroke="#5c3a17" stroke-width="4"/>
        <circle cx="50" cy="50" r="27" fill="#a9743c" stroke="#5c3a17" stroke-width="3.5"/>
        <path d="M 30 22 L 38 30 M 50 18 L 50 28 M 70 22 L 62 30" stroke="#5c3a17" stroke-width="4" stroke-linecap="round"/>
        <circle cx="40" cy="44" r="5.5" fill="#3b2412"/>
        <circle cx="60" cy="44" r="5.5" fill="#3b2412"/>
        <path d="M 34 62 L 42 58 L 50 64 L 58 58 L 66 62" fill="none" stroke="#3b2412" stroke-width="4.5" stroke-linecap="round" stroke-linejoin="round"/>
      </g></g>
    </g>
    <circle cx="269.333" cy="266.333" r="210.333" style="fill:none;stroke:black;stroke-width:2.89px;"/>
  </g>
  <defs>
    <radialGradient id="_Radial1" cx="0" cy="0" r="1" gradientUnits="userSpaceOnUse" gradientTransform="matrix(0,210.333333,-210.333333,0,269.333333,266.333333)"><stop offset="0" style="stop-color:white;stop-opacity:1"/><stop offset="0.48" style="stop-color:rgb(198,198,198);stop-opacity:1"/><stop offset="1" style="stop-color:rgb(44,44,44);stop-opacity:1"/></radialGradient>
  </defs>
</svg>
